<svg width="36" height="32" viewBox="0 0 36 32" fill="none" xmlns="http://www.w3.org/2000/svg">
<path d="M1.10021 5.94725C5.89873 9.66669 14.3187 16.2103 16.7934 18.2506C17.1256 18.526 17.4819 18.666 17.8518 18.666C18.221 18.666 18.5767 18.5273 18.9082 18.2533C21.385 16.2109 29.8049 9.66669 34.6035 5.94725C34.9023 5.71612 34.9478 5.30987 34.706 5.02731C34.1468 4.37437 33.3132 4 32.4197 4H3.28396C2.39056 4 1.55684 4.37438 0.997775 5.02738C0.755902 5.30988 0.80145 5.71612 1.10021 5.94725Z" fill="#CD06FF"/>
<path d="M34.9108 7.96279C34.6526 7.85279 34.3489 7.89116 34.1341 8.05916C28.8126 12.188 22.0209 17.4804 19.8841 19.2427C18.6847 20.2336 17.0202 20.2336 15.8181 19.2414C13.5405 17.3632 5.91363 11.4289 1.56962 8.0591C1.35335 7.8911 1.04893 7.85404 0.792853 7.96273C0.535411 8.07216 0.370361 8.30785 0.370361 8.5676V25.3332C0.370361 26.804 1.67703 27.9999 3.28396 27.9999H32.4198C34.0267 27.9999 35.3333 26.804 35.3333 25.3332V8.5676C35.3333 8.30785 35.1683 8.07154 34.9108 7.96279Z" fill="#CD06FF"/>
</svg>
