<svg width="35" height="32" viewBox="0 0 35 32" fill="none" xmlns="http://www.w3.org/2000/svg">
<path d="M17.4815 0C11.338 0 6.21411 4.52938 6.21411 10.3125C6.21411 12.5126 6.93645 14.4745 8.32275 16.3129L16.6192 28.1616C17.0217 28.7376 17.9421 28.7365 18.3437 28.1616L26.6762 16.2726C28.0326 14.5175 28.7488 12.4567 28.7488 10.3125C28.7488 4.62619 23.6943 0 17.4815 0ZM17.4815 15C14.6576 15 12.3599 12.8971 12.3599 10.3125C12.3599 7.72794 14.6576 5.625 17.4815 5.625C20.3053 5.625 22.603 7.72794 22.603 10.3125C22.603 12.8971 20.3053 15 17.4815 15Z" fill="#CD06FF"/>
<path d="M25.4891 21.5435L20.3313 28.9239C18.9962 30.829 15.9593 30.8228 14.6306 28.9257L9.46443 21.5454C4.91897 22.5073 2.11688 24.2693 2.11688 26.375C2.11688 30.0289 10.0333 32 17.4815 32C24.9297 32 32.846 30.0289 32.846 26.375C32.846 24.2678 30.0401 22.5048 25.4891 21.5435Z" fill="#CD06FF"/>
</svg>
