<svg xmlns="http://www.w3.org/2000/svg" width="48" height="48" fill="currentColor" viewBox="0 0 48 48"><path d="M23.9999 0C10.7449 0 -0.00012207 10.745 -0.00012207 24C-0.00012207 37.255 10.7449 48 23.9999 48C37.2549 48 47.9999 37.255 47.9999 24C47.9999 10.745 37.2549 0 23.9999 0ZM33.2299 27.0775C33.2299 27.0775 35.3524 29.1725 35.8749 30.145C35.8899 30.165 35.8974 30.185 35.9024 30.195C36.1149 30.5525 36.1649 30.83 36.0599 31.0375C35.8849 31.3825 35.2849 31.5525 35.0799 31.5675H31.3299C31.0699 31.5675 30.5249 31.5 29.8649 31.045C29.3574 30.69 28.8574 30.1075 28.3699 29.54C27.6424 28.695 27.0124 27.965 26.3774 27.965C26.2967 27.9649 26.2166 27.9775 26.1399 28.0025C25.6599 28.1575 25.0449 28.8425 25.0449 30.6675C25.0449 31.2375 24.5949 31.565 24.2774 31.565H22.5599C21.9749 31.565 18.9274 31.36 16.2274 28.5125C12.9224 25.025 9.94738 18.03 9.92238 17.965C9.73488 17.5125 10.1224 17.27 10.5449 17.27H14.3324C14.8374 17.27 15.0024 17.5775 15.1174 17.85C15.2524 18.1675 15.7474 19.43 16.5599 20.85C17.8774 23.165 18.6849 24.105 19.3324 24.105C19.4538 24.1036 19.573 24.0727 19.6799 24.015C20.5249 23.545 20.3674 20.5325 20.3299 19.9075C20.3299 19.79 20.3274 18.56 19.8949 17.97C19.5849 17.5425 19.0574 17.38 18.7374 17.32C18.8669 17.1413 19.0375 16.9964 19.2349 16.8975C19.8149 16.6075 20.8599 16.565 21.8974 16.565H22.4749C23.5999 16.58 23.8899 16.6525 24.2974 16.755C25.1224 16.9525 25.1399 17.485 25.0674 19.3075C25.0449 19.825 25.0224 20.41 25.0224 21.1C25.0224 21.25 25.0149 21.41 25.0149 21.58C24.9899 22.5075 24.9599 23.56 25.6149 23.9925C25.7003 24.0461 25.799 24.0746 25.8999 24.075C26.1274 24.075 26.8124 24.075 28.6674 20.8925C29.2395 19.8681 29.7366 18.8037 30.1549 17.7075C30.1924 17.6425 30.3024 17.4425 30.4324 17.365C30.5283 17.3161 30.6347 17.2912 30.7424 17.2925H35.1949C35.6799 17.2925 36.0124 17.365 36.0749 17.5525C36.1849 17.85 36.0549 18.7575 34.0224 21.51L33.1149 22.7075C31.2724 25.1225 31.2724 25.245 33.2299 27.0775Z"/></svg>