<svg xmlns="http://www.w3.org/2000/svg" width="50" height="50" fill="currentColor" viewBox="0 0 50 50"><path fill-rule="evenodd" d="M44.7441 9.66919C48.1583 14.0494 50.0085 19.4463 49.9999 24.9999C49.9999 38.8051 38.805 49.9999 25.0006 49.9999C15.2871 49.9999 6.86597 44.4576 2.72751 36.3647H13.6237C18.816 36.3647 22.4429 33.566 22.4429 29.0923C22.4429 19.6108 11.5051 23.4737 11.5051 20.1089C11.5051 18.4878 12.8057 17.898 15.1858 17.898H22.7692C24.8711 17.898 27.3435 18.275 27.3435 20.5685V28.1243C27.3435 33.5955 31.6159 36.364 36.0441 36.364C40.548 36.364 44.7435 33.5955 44.7435 28.1243V9.66919H44.7441V9.66919Z" clip-rule="evenodd"/><path fill-rule="evenodd" d="M25.0005 2.43241e-05C30.0173 -0.00698868 34.919 1.50262 39.0626 4.33079V28.3013C39.0626 29.9628 37.7037 31.3224 36.0447 31.3224C34.3838 31.3224 33.0261 29.9628 33.0261 28.3013V21.1186C33.0261 15.3846 30.1242 12.9994 26.3447 12.9994H14.0441C9.59088 12.9994 5.89665 15.834 5.89665 20.3289C5.89665 22.6289 6.8819 25.9994 11.5415 26.8353C15.337 27.5186 16.8351 27.3199 16.8351 29.3506C16.8351 31.3224 14.6261 31.3224 11.7101 31.3224H0.808189C0.269676 29.2582 -0.0019826 27.1334 -0.000143311 25C-0.000143311 11.1981 11.196 2.43241e-05 25.0005 2.43241e-05Z" clip-rule="evenodd"/></svg>