<svg width="50" height="50" viewBox="0 0 50 50" fill="currentColor" xmlns="http://www.w3.org/2000/svg">
<path d="M25.0005 0C11.1947 0 -0.000152588 11.1936 -0.000152588 25.0006C-0.000152588 35.2378 6.15562 44.0314 14.9646 47.8981C14.8941 46.1526 14.9511 44.0558 15.3998 42.159C15.8806 40.1282 18.6165 28.5359 18.6165 28.5359C18.6165 28.5359 17.8178 26.9397 17.8178 24.5808C17.8178 20.8763 19.9652 18.1077 22.6383 18.1077C24.912 18.1077 26.0107 19.8154 26.0107 21.8609C26.0107 24.1468 24.5537 27.5635 23.8037 30.7327C23.1768 33.3859 25.1338 35.5481 27.7498 35.5481C32.4864 35.5481 35.6761 29.4647 35.6761 22.2558C35.6761 16.7782 31.9864 12.6769 25.2742 12.6769C17.6902 12.6769 12.9659 18.3321 12.9659 24.6487C12.9659 26.8282 13.6082 28.3635 14.6146 29.5513C15.0768 30.0981 15.1409 30.318 14.9736 30.9462C14.8537 31.4058 14.5781 32.5128 14.4646 32.9519C14.2986 33.5853 13.7857 33.8109 13.2127 33.5776C9.71972 32.1513 8.0928 28.3263 8.0928 24.0263C8.0928 16.9237 14.0819 8.40898 25.9601 8.40898C35.5056 8.40898 41.7877 15.316 41.7877 22.732C41.7877 32.5378 36.3351 39.8647 28.2979 39.8647C25.5998 39.8647 23.0607 38.4051 22.1909 36.7487C22.1909 36.7487 20.7396 42.5077 20.4325 43.6218C19.9024 45.5494 18.8646 47.4763 17.9159 48.9769C20.2162 49.6571 22.6024 50.0025 25.0011 50.0026C38.8063 50.0013 49.9998 38.8071 49.9998 25.0006C49.9998 11.1936 38.8063 0 25.0005 0Z" />
</svg>
